<svg height="512pt" viewBox="0 0 512 512" width="512pt" xmlns="http://www.w3.org/2000/svg"><path d="m480 432c0 26.507812-21.492188 48-48 48h-352c-26.507812 0-48-21.492188-48-48v-352c0-26.507812 21.492188-48 48-48h240v-32h-240c-44.160156.0546875-79.9453125 35.839844-80 80v352c.0546875 44.160156 35.839844 79.945312 80 80h352c44.160156-.054688 79.945312-35.839844 80-80v-240h-32zm0 0"/><path d="m480 0h-112v32h89.375l-228.6875 228.6875 22.625 22.625 228.6875-228.6875v89.375h32v-112c0-17.671875-14.328125-32-32-32zm0 0"/></svg>